<mxfile host="app.diagrams.net" agent="Mozilla/5.0 (Windows NT 10.0; Win64; x64) AppleWebKit/537.36 (KHTML, like Gecko) Chrome/127.0.0.0 Safari/537.36" version="24.7.8">
  <diagram id="C5RBs43oDa-KdzZeNtuy" name="Page-1">
    <mxGraphModel dx="1500" dy="1976" grid="1" gridSize="10" guides="1" tooltips="1" connect="1" arrows="1" fold="1" page="1" pageScale="1" pageWidth="827" pageHeight="1169" math="0" shadow="0">
      <root>
        <mxCell id="WIyWlLk6GJQsqaUBKTNV-0" />
        <mxCell id="WIyWlLk6GJQsqaUBKTNV-1" parent="WIyWlLk6GJQsqaUBKTNV-0" />
        <mxCell id="WIyWlLk6GJQsqaUBKTNV-2" value="" style="rounded=0;html=1;jettySize=auto;orthogonalLoop=1;fontSize=11;endArrow=block;endFill=0;endSize=8;strokeWidth=1;shadow=0;labelBackgroundColor=none;edgeStyle=orthogonalEdgeStyle;" parent="WIyWlLk6GJQsqaUBKTNV-1" source="WIyWlLk6GJQsqaUBKTNV-3" target="WIyWlLk6GJQsqaUBKTNV-6" edge="1">
          <mxGeometry relative="1" as="geometry" />
        </mxCell>
        <mxCell id="WIyWlLk6GJQsqaUBKTNV-3" value="Check with DA: status, infor, year of PO" style="rounded=1;whiteSpace=wrap;html=1;fontSize=12;glass=0;strokeWidth=1;shadow=0;" parent="WIyWlLk6GJQsqaUBKTNV-1" vertex="1">
          <mxGeometry x="160" y="60" width="120" height="60" as="geometry" />
        </mxCell>
        <mxCell id="WIyWlLk6GJQsqaUBKTNV-4" value="Yes" style="rounded=0;html=1;jettySize=auto;orthogonalLoop=1;fontSize=11;endArrow=block;endFill=0;endSize=8;strokeWidth=1;shadow=0;labelBackgroundColor=none;edgeStyle=orthogonalEdgeStyle;" parent="WIyWlLk6GJQsqaUBKTNV-1" source="WIyWlLk6GJQsqaUBKTNV-6" target="WIyWlLk6GJQsqaUBKTNV-10" edge="1">
          <mxGeometry y="20" relative="1" as="geometry">
            <mxPoint as="offset" />
          </mxGeometry>
        </mxCell>
        <mxCell id="WIyWlLk6GJQsqaUBKTNV-5" value="No" style="edgeStyle=orthogonalEdgeStyle;rounded=0;html=1;jettySize=auto;orthogonalLoop=1;fontSize=11;endArrow=block;endFill=0;endSize=8;strokeWidth=1;shadow=0;labelBackgroundColor=none;" parent="WIyWlLk6GJQsqaUBKTNV-1" source="WIyWlLk6GJQsqaUBKTNV-6" target="WIyWlLk6GJQsqaUBKTNV-7" edge="1">
          <mxGeometry y="10" relative="1" as="geometry">
            <mxPoint as="offset" />
          </mxGeometry>
        </mxCell>
        <mxCell id="WIyWlLk6GJQsqaUBKTNV-6" value="SU?&amp;nbsp;" style="rhombus;whiteSpace=wrap;html=1;shadow=0;fontFamily=Helvetica;fontSize=12;align=center;strokeWidth=1;spacing=6;spacingTop=-4;" parent="WIyWlLk6GJQsqaUBKTNV-1" vertex="1">
          <mxGeometry x="170" y="170" width="100" height="80" as="geometry" />
        </mxCell>
        <mxCell id="Bd9iW0a9v76xwMaIJMBL-3" style="edgeStyle=orthogonalEdgeStyle;rounded=0;orthogonalLoop=1;jettySize=auto;html=1;" edge="1" parent="WIyWlLk6GJQsqaUBKTNV-1" source="WIyWlLk6GJQsqaUBKTNV-7" target="Bd9iW0a9v76xwMaIJMBL-2">
          <mxGeometry relative="1" as="geometry" />
        </mxCell>
        <mxCell id="WIyWlLk6GJQsqaUBKTNV-7" value="Check rule OPM" style="rounded=1;whiteSpace=wrap;html=1;fontSize=12;glass=0;strokeWidth=1;shadow=0;" parent="WIyWlLk6GJQsqaUBKTNV-1" vertex="1">
          <mxGeometry x="320" y="190" width="120" height="40" as="geometry" />
        </mxCell>
        <mxCell id="WIyWlLk6GJQsqaUBKTNV-9" value="Yes" style="edgeStyle=orthogonalEdgeStyle;rounded=0;html=1;jettySize=auto;orthogonalLoop=1;fontSize=11;endArrow=block;endFill=0;endSize=8;strokeWidth=1;shadow=0;labelBackgroundColor=none;entryX=0.5;entryY=1;entryDx=0;entryDy=0;" parent="WIyWlLk6GJQsqaUBKTNV-1" source="WIyWlLk6GJQsqaUBKTNV-10" target="WIyWlLk6GJQsqaUBKTNV-7" edge="1">
          <mxGeometry y="10" relative="1" as="geometry">
            <mxPoint as="offset" />
            <mxPoint x="320" y="330" as="targetPoint" />
          </mxGeometry>
        </mxCell>
        <mxCell id="WIyWlLk6GJQsqaUBKTNV-10" value="Check with IT" style="rhombus;whiteSpace=wrap;html=1;shadow=0;fontFamily=Helvetica;fontSize=12;align=center;strokeWidth=1;spacing=6;spacingTop=-4;" parent="WIyWlLk6GJQsqaUBKTNV-1" vertex="1">
          <mxGeometry x="170" y="290" width="100" height="80" as="geometry" />
        </mxCell>
        <mxCell id="Bd9iW0a9v76xwMaIJMBL-1" style="edgeStyle=orthogonalEdgeStyle;rounded=0;orthogonalLoop=1;jettySize=auto;html=1;entryX=0.5;entryY=0;entryDx=0;entryDy=0;" edge="1" parent="WIyWlLk6GJQsqaUBKTNV-1" source="Bd9iW0a9v76xwMaIJMBL-0" target="WIyWlLk6GJQsqaUBKTNV-3">
          <mxGeometry relative="1" as="geometry" />
        </mxCell>
        <mxCell id="Bd9iW0a9v76xwMaIJMBL-0" value="Receive request" style="ellipse;whiteSpace=wrap;html=1;" vertex="1" parent="WIyWlLk6GJQsqaUBKTNV-1">
          <mxGeometry x="180" y="-40" width="80" height="60" as="geometry" />
        </mxCell>
        <mxCell id="Bd9iW0a9v76xwMaIJMBL-5" style="edgeStyle=orthogonalEdgeStyle;rounded=0;orthogonalLoop=1;jettySize=auto;html=1;entryX=0.5;entryY=0;entryDx=0;entryDy=0;" edge="1" parent="WIyWlLk6GJQsqaUBKTNV-1" source="Bd9iW0a9v76xwMaIJMBL-2" target="Bd9iW0a9v76xwMaIJMBL-4">
          <mxGeometry relative="1" as="geometry" />
        </mxCell>
        <mxCell id="Bd9iW0a9v76xwMaIJMBL-15" value="Yes" style="edgeLabel;html=1;align=center;verticalAlign=middle;resizable=0;points=[];" vertex="1" connectable="0" parent="Bd9iW0a9v76xwMaIJMBL-5">
          <mxGeometry x="-0.3882" y="2" relative="1" as="geometry">
            <mxPoint as="offset" />
          </mxGeometry>
        </mxCell>
        <mxCell id="Bd9iW0a9v76xwMaIJMBL-10" style="edgeStyle=orthogonalEdgeStyle;rounded=0;orthogonalLoop=1;jettySize=auto;html=1;entryX=0;entryY=0.5;entryDx=0;entryDy=0;" edge="1" parent="WIyWlLk6GJQsqaUBKTNV-1" source="Bd9iW0a9v76xwMaIJMBL-2" target="Bd9iW0a9v76xwMaIJMBL-9">
          <mxGeometry relative="1" as="geometry" />
        </mxCell>
        <mxCell id="Bd9iW0a9v76xwMaIJMBL-12" value="No" style="edgeLabel;html=1;align=center;verticalAlign=middle;resizable=0;points=[];" vertex="1" connectable="0" parent="Bd9iW0a9v76xwMaIJMBL-10">
          <mxGeometry x="-0.1613" y="-3" relative="1" as="geometry">
            <mxPoint as="offset" />
          </mxGeometry>
        </mxCell>
        <mxCell id="Bd9iW0a9v76xwMaIJMBL-2" value="In OPM" style="rhombus;whiteSpace=wrap;html=1;shadow=0;fontFamily=Helvetica;fontSize=12;align=center;strokeWidth=1;spacing=6;spacingTop=-4;" vertex="1" parent="WIyWlLk6GJQsqaUBKTNV-1">
          <mxGeometry x="510" y="170" width="100" height="80" as="geometry" />
        </mxCell>
        <mxCell id="Bd9iW0a9v76xwMaIJMBL-8" style="edgeStyle=orthogonalEdgeStyle;rounded=0;orthogonalLoop=1;jettySize=auto;html=1;entryX=0.5;entryY=0;entryDx=0;entryDy=0;" edge="1" parent="WIyWlLk6GJQsqaUBKTNV-1" source="Bd9iW0a9v76xwMaIJMBL-4" target="Bd9iW0a9v76xwMaIJMBL-7">
          <mxGeometry relative="1" as="geometry" />
        </mxCell>
        <mxCell id="Bd9iW0a9v76xwMaIJMBL-4" value="propose action" style="rounded=1;whiteSpace=wrap;html=1;fontSize=12;glass=0;strokeWidth=1;shadow=0;" vertex="1" parent="WIyWlLk6GJQsqaUBKTNV-1">
          <mxGeometry x="500" y="310" width="120" height="40" as="geometry" />
        </mxCell>
        <mxCell id="Bd9iW0a9v76xwMaIJMBL-16" style="edgeStyle=orthogonalEdgeStyle;rounded=0;orthogonalLoop=1;jettySize=auto;html=1;entryX=0;entryY=0.75;entryDx=0;entryDy=0;" edge="1" parent="WIyWlLk6GJQsqaUBKTNV-1" source="Bd9iW0a9v76xwMaIJMBL-7" target="Bd9iW0a9v76xwMaIJMBL-4">
          <mxGeometry relative="1" as="geometry">
            <Array as="points">
              <mxPoint x="480" y="450" />
              <mxPoint x="480" y="340" />
            </Array>
          </mxGeometry>
        </mxCell>
        <mxCell id="Bd9iW0a9v76xwMaIJMBL-17" value="No" style="edgeLabel;html=1;align=center;verticalAlign=middle;resizable=0;points=[];" vertex="1" connectable="0" parent="Bd9iW0a9v76xwMaIJMBL-16">
          <mxGeometry x="0.234" y="2" relative="1" as="geometry">
            <mxPoint as="offset" />
          </mxGeometry>
        </mxCell>
        <mxCell id="Bd9iW0a9v76xwMaIJMBL-19" style="edgeStyle=orthogonalEdgeStyle;rounded=0;orthogonalLoop=1;jettySize=auto;html=1;entryX=0;entryY=0.5;entryDx=0;entryDy=0;" edge="1" parent="WIyWlLk6GJQsqaUBKTNV-1" source="Bd9iW0a9v76xwMaIJMBL-7" target="Bd9iW0a9v76xwMaIJMBL-18">
          <mxGeometry relative="1" as="geometry" />
        </mxCell>
        <mxCell id="Bd9iW0a9v76xwMaIJMBL-7" value="Review + Endorse" style="rhombus;whiteSpace=wrap;html=1;shadow=0;fontFamily=Helvetica;fontSize=12;align=center;strokeWidth=1;spacing=6;spacingTop=-4;" vertex="1" parent="WIyWlLk6GJQsqaUBKTNV-1">
          <mxGeometry x="510" y="410" width="100" height="80" as="geometry" />
        </mxCell>
        <mxCell id="Bd9iW0a9v76xwMaIJMBL-32" style="edgeStyle=orthogonalEdgeStyle;rounded=0;orthogonalLoop=1;jettySize=auto;html=1;entryX=0.5;entryY=0;entryDx=0;entryDy=0;" edge="1" parent="WIyWlLk6GJQsqaUBKTNV-1" source="Bd9iW0a9v76xwMaIJMBL-9" target="Bd9iW0a9v76xwMaIJMBL-31">
          <mxGeometry relative="1" as="geometry" />
        </mxCell>
        <mxCell id="Bd9iW0a9v76xwMaIJMBL-9" value="forward to appropriate stake holders" style="rounded=1;whiteSpace=wrap;html=1;fontSize=12;glass=0;strokeWidth=1;shadow=0;" vertex="1" parent="WIyWlLk6GJQsqaUBKTNV-1">
          <mxGeometry x="850" y="190" width="120" height="40" as="geometry" />
        </mxCell>
        <mxCell id="Bd9iW0a9v76xwMaIJMBL-23" style="edgeStyle=orthogonalEdgeStyle;rounded=0;orthogonalLoop=1;jettySize=auto;html=1;" edge="1" parent="WIyWlLk6GJQsqaUBKTNV-1" source="Bd9iW0a9v76xwMaIJMBL-18" target="Bd9iW0a9v76xwMaIJMBL-20">
          <mxGeometry relative="1" as="geometry" />
        </mxCell>
        <mxCell id="Bd9iW0a9v76xwMaIJMBL-18" value="Send email action" style="rounded=1;whiteSpace=wrap;html=1;fontSize=12;glass=0;strokeWidth=1;shadow=0;" vertex="1" parent="WIyWlLk6GJQsqaUBKTNV-1">
          <mxGeometry x="660" y="430" width="120" height="40" as="geometry" />
        </mxCell>
        <mxCell id="Bd9iW0a9v76xwMaIJMBL-24" style="edgeStyle=orthogonalEdgeStyle;rounded=0;orthogonalLoop=1;jettySize=auto;html=1;entryX=0.5;entryY=1;entryDx=0;entryDy=0;" edge="1" parent="WIyWlLk6GJQsqaUBKTNV-1" source="Bd9iW0a9v76xwMaIJMBL-20" target="Bd9iW0a9v76xwMaIJMBL-21">
          <mxGeometry relative="1" as="geometry" />
        </mxCell>
        <mxCell id="Bd9iW0a9v76xwMaIJMBL-25" value="Yes" style="edgeLabel;html=1;align=center;verticalAlign=middle;resizable=0;points=[];" vertex="1" connectable="0" parent="Bd9iW0a9v76xwMaIJMBL-24">
          <mxGeometry x="-0.0118" relative="1" as="geometry">
            <mxPoint as="offset" />
          </mxGeometry>
        </mxCell>
        <mxCell id="Bd9iW0a9v76xwMaIJMBL-26" style="edgeStyle=orthogonalEdgeStyle;rounded=0;orthogonalLoop=1;jettySize=auto;html=1;entryX=0.5;entryY=0;entryDx=0;entryDy=0;" edge="1" parent="WIyWlLk6GJQsqaUBKTNV-1" source="Bd9iW0a9v76xwMaIJMBL-20" target="Bd9iW0a9v76xwMaIJMBL-22">
          <mxGeometry relative="1" as="geometry" />
        </mxCell>
        <mxCell id="Bd9iW0a9v76xwMaIJMBL-27" value="No" style="edgeLabel;html=1;align=center;verticalAlign=middle;resizable=0;points=[];" vertex="1" connectable="0" parent="Bd9iW0a9v76xwMaIJMBL-26">
          <mxGeometry x="-0.1247" y="-3" relative="1" as="geometry">
            <mxPoint as="offset" />
          </mxGeometry>
        </mxCell>
        <mxCell id="Bd9iW0a9v76xwMaIJMBL-20" value="SU?" style="rhombus;whiteSpace=wrap;html=1;shadow=0;fontFamily=Helvetica;fontSize=12;align=center;strokeWidth=1;spacing=6;spacingTop=-4;" vertex="1" parent="WIyWlLk6GJQsqaUBKTNV-1">
          <mxGeometry x="850" y="410" width="100" height="80" as="geometry" />
        </mxCell>
        <mxCell id="Bd9iW0a9v76xwMaIJMBL-29" style="edgeStyle=orthogonalEdgeStyle;rounded=0;orthogonalLoop=1;jettySize=auto;html=1;entryX=0.5;entryY=0;entryDx=0;entryDy=0;" edge="1" parent="WIyWlLk6GJQsqaUBKTNV-1" source="Bd9iW0a9v76xwMaIJMBL-21" target="Bd9iW0a9v76xwMaIJMBL-28">
          <mxGeometry relative="1" as="geometry" />
        </mxCell>
        <mxCell id="Bd9iW0a9v76xwMaIJMBL-21" value="IT" style="rounded=1;whiteSpace=wrap;html=1;fontSize=12;glass=0;strokeWidth=1;shadow=0;" vertex="1" parent="WIyWlLk6GJQsqaUBKTNV-1">
          <mxGeometry x="840" y="300" width="120" height="40" as="geometry" />
        </mxCell>
        <mxCell id="Bd9iW0a9v76xwMaIJMBL-30" style="edgeStyle=orthogonalEdgeStyle;rounded=0;orthogonalLoop=1;jettySize=auto;html=1;entryX=0.5;entryY=1;entryDx=0;entryDy=0;" edge="1" parent="WIyWlLk6GJQsqaUBKTNV-1" source="Bd9iW0a9v76xwMaIJMBL-22" target="Bd9iW0a9v76xwMaIJMBL-28">
          <mxGeometry relative="1" as="geometry" />
        </mxCell>
        <mxCell id="Bd9iW0a9v76xwMaIJMBL-22" value="DA" style="rounded=1;whiteSpace=wrap;html=1;fontSize=12;glass=0;strokeWidth=1;shadow=0;" vertex="1" parent="WIyWlLk6GJQsqaUBKTNV-1">
          <mxGeometry x="840" y="540" width="120" height="40" as="geometry" />
        </mxCell>
        <mxCell id="Bd9iW0a9v76xwMaIJMBL-34" style="edgeStyle=orthogonalEdgeStyle;rounded=0;orthogonalLoop=1;jettySize=auto;html=1;entryX=0;entryY=0.5;entryDx=0;entryDy=0;" edge="1" parent="WIyWlLk6GJQsqaUBKTNV-1" source="Bd9iW0a9v76xwMaIJMBL-28" target="Bd9iW0a9v76xwMaIJMBL-31">
          <mxGeometry relative="1" as="geometry" />
        </mxCell>
        <mxCell id="Bd9iW0a9v76xwMaIJMBL-28" value="Response to Head Performance" style="rounded=1;whiteSpace=wrap;html=1;fontSize=12;glass=0;strokeWidth=1;shadow=0;" vertex="1" parent="WIyWlLk6GJQsqaUBKTNV-1">
          <mxGeometry x="1090" y="430" width="120" height="40" as="geometry" />
        </mxCell>
        <mxCell id="Bd9iW0a9v76xwMaIJMBL-31" value="" style="ellipse;html=1;shape=endState;fillColor=#000000;strokeColor=#ff0000;" vertex="1" parent="WIyWlLk6GJQsqaUBKTNV-1">
          <mxGeometry x="1360" y="425" width="50" height="50" as="geometry" />
        </mxCell>
        <mxCell id="Bd9iW0a9v76xwMaIJMBL-36" value="1-2 ngày với DA" style="text;html=1;align=center;verticalAlign=middle;whiteSpace=wrap;rounded=0;" vertex="1" parent="WIyWlLk6GJQsqaUBKTNV-1">
          <mxGeometry x="30" y="75" width="120" height="30" as="geometry" />
        </mxCell>
        <mxCell id="Bd9iW0a9v76xwMaIJMBL-37" value="5-6 ngày với IT" style="text;html=1;align=center;verticalAlign=middle;whiteSpace=wrap;rounded=0;" vertex="1" parent="WIyWlLk6GJQsqaUBKTNV-1">
          <mxGeometry x="30" y="320" width="120" height="30" as="geometry" />
        </mxCell>
        <mxCell id="Bd9iW0a9v76xwMaIJMBL-39" value="1-2 ngày" style="text;html=1;align=center;verticalAlign=middle;whiteSpace=wrap;rounded=0;" vertex="1" parent="WIyWlLk6GJQsqaUBKTNV-1">
          <mxGeometry x="330" y="130" width="290" height="30" as="geometry" />
        </mxCell>
        <mxCell id="Bd9iW0a9v76xwMaIJMBL-40" value="1-2 ngày" style="text;html=1;align=center;verticalAlign=middle;whiteSpace=wrap;rounded=0;" vertex="1" parent="WIyWlLk6GJQsqaUBKTNV-1">
          <mxGeometry x="837" y="600" width="123" height="30" as="geometry" />
        </mxCell>
        <mxCell id="Bd9iW0a9v76xwMaIJMBL-41" value="5-6 ngày" style="text;html=1;align=center;verticalAlign=middle;whiteSpace=wrap;rounded=0;" vertex="1" parent="WIyWlLk6GJQsqaUBKTNV-1">
          <mxGeometry x="837" y="260" width="123" height="30" as="geometry" />
        </mxCell>
        <mxCell id="Bd9iW0a9v76xwMaIJMBL-42" value="DA create code dummy" style="rounded=1;whiteSpace=wrap;html=1;fontSize=12;glass=0;strokeWidth=1;shadow=0;" vertex="1" parent="WIyWlLk6GJQsqaUBKTNV-1">
          <mxGeometry x="790" y="370" width="90" height="30" as="geometry" />
        </mxCell>
        <mxCell id="Bd9iW0a9v76xwMaIJMBL-43" value="1. ds HĐ chưa đúng template&lt;div&gt;2. check về data/table&amp;nbsp;&lt;/div&gt;" style="text;html=1;align=left;verticalAlign=middle;whiteSpace=wrap;rounded=0;" vertex="1" parent="WIyWlLk6GJQsqaUBKTNV-1">
          <mxGeometry x="120" y="545" width="220" height="30" as="geometry" />
        </mxCell>
        <mxCell id="Bd9iW0a9v76xwMaIJMBL-44" value="&lt;div&gt;&lt;br&gt;&lt;/div&gt;&lt;div&gt;&lt;br&gt;&lt;/div&gt;" style="text;html=1;align=center;verticalAlign=middle;whiteSpace=wrap;rounded=0;" vertex="1" parent="WIyWlLk6GJQsqaUBKTNV-1">
          <mxGeometry x="220" y="610" width="120" height="30" as="geometry" />
        </mxCell>
        <mxCell id="Bd9iW0a9v76xwMaIJMBL-45" value="timeline cho commission: 24 ???&lt;div&gt;ngày xét chức danh&lt;/div&gt;&lt;div&gt;mốc thoiwg gian tính cho tháng T hay T-1&lt;/div&gt;&lt;div&gt;ngày tính mốc tính tỉ lệ persistency? ảnh hưởng ntn đến commisstion của TVV&lt;/div&gt;" style="text;html=1;align=center;verticalAlign=middle;whiteSpace=wrap;rounded=0;" vertex="1" parent="WIyWlLk6GJQsqaUBKTNV-1">
          <mxGeometry x="40" y="740" width="280" height="60" as="geometry" />
        </mxCell>
      </root>
    </mxGraphModel>
  </diagram>
</mxfile>
